<?xml version="1.0" encoding="iso-8859-1"?>
<!-- Uploaded to: SVG Repo, www.svgrepo.com, Generator: SVG Repo Mixer Tools -->
<svg fill="#000000" height="800px" width="800px" version="1.1" id="Layer_1" xmlns="http://www.w3.org/2000/svg" xmlns:xlink="http://www.w3.org/1999/xlink" 
	 viewBox="0 0 512 512" xml:space="preserve">
<g>
	<g>
		<path d="M435.574,119.716H76.426c-4.427,0-8.017,3.589-8.017,8.017v222.33c0,4.427,3.589,8.017,8.017,8.017h359.148
			c4.427,0,8.017-3.589,8.017-8.017v-222.33C443.591,123.305,440.001,119.716,435.574,119.716z M179.574,342.046h-60.927v-20.025
			c0-0.23,0.146-0.434,0.366-0.507l39.612-13.205c0.683-0.228,1.336-0.507,1.971-0.813l18.978,12.653V342.046z M161.165,192.751
			c3.379-3.672,7.986-5.695,12.976-5.695h26.901c4.99,0,9.6,2.022,12.979,5.695c3.379,3.673,5.011,8.434,4.596,13.406l-3.653,43.85
			c-0.483,5.79-4.01,11.002-9.207,13.601l-10.668,5.334c-4.695,2.346-10.299,2.346-14.992,0l-10.668-5.334
			c-5.197-2.599-8.725-7.81-9.207-13.601l-3.654-43.85C156.153,201.185,157.786,196.423,161.165,192.751z M169.845,294.393
			c0.064-0.593,0.109-1.193,0.109-1.8v-10.795l2.97,1.485c4.592,2.296,9.629,3.444,14.666,3.444s10.074-1.148,14.666-3.444
			l2.97-1.485v10.795c0,0.608,0.045,1.207,0.109,1.8l-17.746,11.831L169.845,294.393z M256.534,342.046h-60.927v-21.897
			l18.977-12.651c0.635,0.307,1.289,0.586,1.971,0.813l39.613,13.205c0.219,0.073,0.366,0.277,0.366,0.507V342.046z
			 M427.557,342.046h-154.99v-20.025c0-7.142-4.552-13.458-11.329-15.718l-39.613-13.205c-0.219-0.073-0.366-0.277-0.366-0.507
			v-19.489c0-0.365-0.033-0.72-0.08-1.072c5.54-5.449,9.102-12.791,9.76-20.692l3.653-43.849c0.779-9.357-2.419-18.685-8.777-25.595
			c-6.358-6.909-15.387-10.872-24.776-10.872H174.14c-9.389,0-18.419,3.962-24.777,10.872c-6.358,6.909-9.556,16.238-8.777,25.595
			l3.653,43.85c0.658,7.899,4.22,15.242,9.76,20.691c-0.047,0.352-0.08,0.708-0.08,1.072v19.49c0,0.23-0.146,0.434-0.366,0.507
			l-39.613,13.205c-6.775,2.259-11.327,8.575-11.327,15.717v20.025H84.443V135.749h343.115V342.046z"/>
	</g>
</g>
<g>
	<g>
		<path d="M495.432,376.251h-17.637V119.182c0-18.566-15.105-33.67-33.67-33.67H67.875c-18.566,0-33.67,15.105-33.67,33.67v257.069
			H16.568C7.432,376.251,0,383.683,0,392.818v17.102c0,9.136,7.432,16.568,16.568,16.568h478.864
			c9.136,0,16.568-7.432,16.568-16.568v-17.102C512,383.683,504.568,376.251,495.432,376.251z M50.238,119.182
			c0-9.725,7.912-17.637,17.637-17.637h376.25c9.725,0,17.637,7.912,17.637,17.637v257.069H50.238V119.182z M495.967,409.921
			c0,0.295-0.239,0.534-0.534,0.534H16.568c-0.295,0-0.534-0.239-0.534-0.534v-17.102c0-0.295,0.239-0.534,0.534-0.534h197.238
			c-0.012,0.177-0.027,0.354-0.027,0.534c0,4.427,3.589,8.017,8.017,8.017h68.409c4.427,0,8.017-3.589,8.017-8.017
			c0-0.181-0.015-0.357-0.027-0.534h197.238c0.295,0,0.534,0.239,0.534,0.534V409.921z"/>
	</g>
</g>
<g>
	<g>
		<path d="M401.37,153.921h-59.486c-3.024,0-5.79,1.702-7.154,4.401l-31.682,62.682l-14.224-28.446
			c-1.357-2.716-4.133-4.432-7.17-4.432h-17.102c-4.427,0-8.017,3.589-8.017,8.017s3.589,8.017,8.017,8.017h12.148l14.886,29.773
			c1.357,2.716,4.133,4.432,7.17,4.432h8.551c3.024,0,5.79-1.702,7.155-4.401l32.351-64.009h54.556c4.427,0,8.017-3.589,8.017-8.017
			S405.797,153.921,401.37,153.921z"/>
	</g>
</g>
<g>
	<g>
		<path d="M385.982,208.969l13.096-16.37c2.766-3.457,2.205-8.502-1.252-11.268s-8.503-2.205-11.268,1.252l-10.842,13.554
			l-10.843-13.552c-2.766-3.458-7.813-4.019-11.268-1.252c-3.457,2.765-4.018,7.81-1.252,11.268l13.096,16.37l-13.096,16.37
			c-2.765,3.456-2.204,8.501,1.253,11.266c1.478,1.182,3.246,1.757,5.002,1.757c2.352,0,4.682-1.03,6.265-3.009l10.843-13.552
			l10.843,13.552c1.583,1.98,3.913,3.009,6.265,3.009c1.756,0,3.525-0.575,5.002-1.757c3.457-2.765,4.018-7.81,1.252-11.268
			L385.982,208.969z"/>
	</g>
</g>
<g>
	<g>
		<path d="M298.756,265.086h-8.551c-4.427,0-8.017,3.589-8.017,8.017s3.589,8.017,8.017,8.017h8.551
			c4.427,0,8.017-3.589,8.017-8.017S303.183,265.086,298.756,265.086z"/>
	</g>
</g>
<g>
	<g>
		<path d="M401.37,265.086H332.96c-4.427,0-8.017,3.589-8.017,8.017s3.589,8.017,8.017,8.017h68.409
			c4.427,0,8.017-3.589,8.017-8.017S405.797,265.086,401.37,265.086z"/>
	</g>
</g>
<g>
	<g>
		<path d="M384.267,299.29H332.96c-4.427,0-8.017,3.589-8.017,8.017s3.589,8.017,8.017,8.017h51.307
			c4.427,0,8.017-3.589,8.017-8.017S388.695,299.29,384.267,299.29z"/>
	</g>
</g>
<g>
	<g>
		<path d="M298.756,299.29h-8.551c-4.427,0-8.017,3.589-8.017,8.017s3.589,8.017,8.017,8.017h8.551c4.427,0,8.017-3.589,8.017-8.017
			S303.183,299.29,298.756,299.29z"/>
	</g>
</g>
</svg>